<?xml version="1.0" encoding="UTF-8"?>
<svg id="Layer_1" xmlns="http://www.w3.org/2000/svg" version="1.1" viewBox="0 0 612 613.31">
  <!-- Generator: Adobe Illustrator 30.1.0, SVG Export Plug-In . SVG Version: 2.1.1 Build 136)  -->
  <defs>
    <style>
      .st0 {
        fill: #fff;
      }

      .st1 {
        fill: #f3ccd3;
      }

      .st2 {
        fill: #1b64ae;
      }

      .st3 {
        fill: #ffc700;
      }

      .st4 {
        fill: #307df0;
      }
    </style>
  </defs>
  <ellipse cx="332.37" cy="519.23" rx="119.31" ry="18.15"/>
  <g>
    <path class="st4" d="M397.83,381.57c-2.68-1.17-5.57-1.77-8.57-1.77-3.23,0-6.59.69-9.99,2.04-10.58,4.22-20.17,14.52-25.68,27.53-3.21,7.58-4.74,15.33-4.74,22.5,0,13.55,5.48,25.01,15.4,29.34,5.59,2.44,12.01,2.33,18.56-.28,10.58-4.23,20.19-14.52,25.68-27.53,9.28-21.97,4.49-45.23-10.66-51.83Z"/>
    <path class="st2" d="M360.5,415.23c-7.35,17.4-3.35,35.86,8.93,41.22,12.28,5.36,28.2-4.4,35.55-21.8,7.35-17.4,3.35-35.86-8.93-41.22-12.28-5.36-28.2,4.4-35.55,21.8h0Z"/>
    <path class="st4" d="M478.3,251.72c-18.16-15.06-29.04-39.8-30.48-43.23-.08-.14-.15-.29-.21-.45-.01-.02-.01-.05-.02-.07-.05-.14-.1-.27-.15-.41-.33-.97-.67-1.93-1.03-2.88-.14-.36-.29-.71-.43-1.07-.29-.72-.57-1.44-.88-2.15-.05-.12-.09-.23-.14-.35-.12-.26-.24-.52-.36-.78-.35-.78-.7-1.55-1.07-2.31-.03-.06-.06-.13-.09-.19-.09-.18-.18-.36-.27-.54-.3-.6-.59-1.19-.9-1.78-.05-.1-.11-.2-.16-.29-.59-1.12-1.22-2.23-1.86-3.32-.24-.4-.47-.81-.72-1.21-.26-.43-.53-.85-.8-1.27-.27-.43-.55-.85-.83-1.28-.26-.4-.52-.79-.79-1.18-.33-.48-.67-.95-1-1.43-.23-.33-.46-.66-.7-.98-.57-.77-1.15-1.53-1.74-2.29-.17-.21-.34-.42-.51-.64-.35-.44-.7-.88-1.07-1.32-.15-.19-.31-.37-.47-.55-.39-.46-.8-.92-1.21-1.38-1.83-2.08-3.76-4.08-5.8-6.01-.32-.3-.65-.59-.97-.89-.43-.39-.85-.79-1.28-1.17-.05-.05-.11-.09-.16-.14-.14-.13-.29-.25-.44-.38-.28-.24-.55-.48-.83-.72-.36-.31-.73-.61-1.1-.91-.2-.16-.39-.33-.59-.49-2.37-1.94-4.86-3.78-7.47-5.54-.05-.03-.1-.07-.15-.1-.17-.11-.34-.22-.51-.33-.11-.07-.22-.14-.34-.22-.82-.54-1.65-1.07-2.49-1.59-.22-.13-.43-.27-.65-.4-.76-.46-1.52-.92-2.3-1.37-.25-.14-.49-.28-.74-.42-.78-.44-1.57-.88-2.37-1.31-.22-.12-.45-.24-.68-.36-.89-.47-1.79-.93-2.7-1.38-.13-.06-.26-.13-.39-.2-3.11-1.54-6.34-2.97-9.68-4.28-.93-.39-4.75-2.13-9.35-5.57-.37-.29-.75-.58-1.15-.89-.79-.63-1.58-1.29-2.38-2.01-.41-.36-.8-.73-1.21-1.11-5.82-5.54-11.7-13.7-13.95-25.12-.03-.03-.37-.13-.64.06-1.73,1.2-12.71,9.18-15.83,20.02-.08.28-.16.57-.23.86-.05.15-.08.3-.12.46-.06.22-.1.44-.14.67-.05.22-.08.45-.12.67-.12.68-.19,1.37-.22,2.07-1.6-.1-3.19-.18-4.77-.22,0,0,0,0,0,0-.1,0-.19,0-.29,0-.92-.02-1.84-.03-2.75-.04-.4,0-.8-.01-1.2-.01-.97,0-1.94.02-2.91.05-.32,0-.65,0-.97.02-1.17.04-2.34.09-3.49.16-.11,0-.22,0-.33.02-5.17.32-10.2.96-15.07,1.91-.03,0-.07.01-.1.02-1.18.23-2.36.48-3.52.75,0,0-.02,0-.03,0-.17.05-.36.08-.53.13-.05.01-.1.03-.15.04-2.11.5-4.19,1.06-6.23,1.68-.33.1-.67.2-1.01.31-.24.07-.47.15-.7.23-.34.11-.69.22-1.03.33-.02,0-.05.01-.07.02-.59.21-1.18.41-1.78.62-.13.05-.26.1-.39.15-.67.24-1.33.49-1.99.75-.38.15-.76.28-1.14.43-.15.06-.3.13-.45.19-.74.3-1.47.62-2.2.94-.25.11-.5.21-.74.32-.04.02-.07.03-.11.05-.78.35-1.54.71-2.31,1.08-.21.1-.42.19-.62.29-.05.02-.1.05-.16.08-.21.11-.42.21-.64.32-.38.19-.77.38-1.15.58-.36.2-.73.4-1.1.59-.2.11-.39.21-.59.32-.86.47-1.71.96-2.55,1.45-.09.06-.18.11-.28.17-.81.48-1.6.98-2.39,1.48-.18.11-.35.23-.52.34-.69.45-1.36.9-2.04,1.37-.23.16-.45.31-.67.47-.22.16-.45.31-.68.47-.49.36-.98.71-1.46,1.08-.05.03-.09.07-.13.11-1.12.85-2.22,1.74-3.29,2.64-.32.27-.63.54-.94.81-.97.84-1.93,1.7-2.86,2.59-.13.13-.28.25-.41.38-1.03.99-2.02,2.01-3,3.05-.28.3-.57.61-.85.92-.9.99-1.79,2-2.64,3.03-.07.09-.15.17-.23.26-.01.01-.02.03-.03.05s-.02.03-.05.05c-.08.1-.17.2-.28.28,0,0-.01.02-.02.02-2.42,2.52-20.34,20.72-41.82,28.78-.69.26-1.39.51-2.09.75.53,1.64,1.56,4.11,3.48,6.67,3.22,4.26,8.93,8.75,19,10,1.29.16,2.22,1.34,2.08,2.64,0,.03,0,.06,0,.09-.18,1.58-.32,3.14-.43,4.69-.02.31-.03.61-.05.92-.08,1.28-.15,2.56-.19,3.82,0,.27,0,.53,0,.79-.03,1.31-.04,2.61-.02,3.89,0,.18.01.37.02.55.03,1.37.08,2.72.17,4.06,0,.1.02.21.02.31.1,1.42.22,2.82.38,4.21,0,.04,0,.07.01.11.5,4.37,1.31,8.58,2.43,12.63,0,.02.01.05.02.07,0,0,0,0,0,0,.35,1.28.74,2.54,1.15,3.78.18.54.35,1.08.54,1.61.2.57.42,1.12.64,1.68.24.62.47,1.23.73,1.84.22.52.45,1.04.67,1.55.28.63.57,1.26.86,1.89.23.49.47.97.72,1.46.32.64.66,1.28,1,1.91.25.46.5.91.75,1.36.37.66.76,1.3,1.16,1.95.25.41.5.83.76,1.24.45.71.93,1.4,1.4,2.1.23.33.45.67.68.99.72,1.02,1.47,2.02,2.25,3,0,0,0,0,0,0,.11.15.2.3.28.46.02.03.03.07.04.1.05.13.1.26.13.39.01.05.02.1.02.15.02.12.03.24.03.37,0,.05,0,.1,0,.15,0,.13-.03.27-.06.4-.12.51-.39.98-.83,1.33-1.03.81-2.53.64-3.34-.39-6.28-7.94-10.86-16.81-13.75-26.52l-33.11-22.82c-.07-.05-.14-.09-.2-.15-.6-.52-1.29-.96-2.02-1.31l-.53,4.8c-.59,8.4-17.41,9.72-27.44,9.76h-.38c-6.29,0-12.28-.58-16.84-1.65-2.45-.57-9.86-2.29-10.3-7.91l-.39-3.29c-1.39,1.01-2.31,2.53-2.57,4.32-.33,2.43.69,4.69,2.72,6.07.07.05.14.09.21.15l2.44,2.06c11.75,10.01,22.19,21.41,31.02,33.86,13.02,18.43,40.07,51.72,74.95,67.68.99.44,1.54,1.5,1.36,2.57-6.04,34.77-5.53,66.43,1.52,94.09.65,2.56,1.3,4.88,2,7.1,10.32,34.01,27.54,49.16,27.71,49.31.7.59.99,1.53.76,2.42-.03.12-3.14,12.3,3.34,18.27,5.3,4.87,16.11,4.61,31.28-.75,32.78-11.61,28.81-31.87,28.63-32.73l-2.11-8.79-5.11-18.82c-.3-1.11.23-2.28,1.27-2.78.12-.06,3.22-1.57,7.96-4.44-9.57-11.51-11.43-31.58-3.38-50.64,3-7.08,7.13-13.43,11.99-18.61,4.87-5.17,10.45-9.15,16.32-11.5,7.77-3.09,15.46-3.17,22.24-.21,5.69,2.49,10.15,6.9,13.24,12.58,14.84,5.03,35.81,6.24,46.45,3.76,8.9-2.06,12.5-9.15,12.92-15.11.39-5.85-2.26-13.88-11.07-17.24-29.92-11.39-51.46-33.62-56.18-38.77-3.21,1.43-6.55,2.68-10.02,3.74-.23.07-.46.1-.7.1-1.02,0-1.96-.66-2.28-1.68-.14-.45-.13-.91-.01-1.33.05-.17.11-.34.2-.5.03-.05.06-.1.1-.15.06-.1.13-.19.21-.28.05-.06.11-.12.17-.18.07-.06.14-.12.22-.18.07-.05.15-.11.23-.15.06-.04.14-.06.2-.09.09-.04.18-.08.27-.11,25.6-7.82,43.68-26.24,52.67-53.46.77-2.32,1.48-4.7,2.11-7.15.29-1.11,1.31-1.83,2.41-1.79.16,0,.32.03.47.07,15.76,3.88,24.08-3.96,26.96-7.55,0,0,0,0,0,0,0,0,0,0,0,0Z"/>
    <path d="M375.91,141.7c.8.72,1.6,1.39,2.38,2.01-.79-.63-1.58-1.29-2.38-2.01Z"/>
    <path class="st4" d="M207.33,138.32l-11.5,102.94c-.1,2.95-10.27,5.34-22.72,5.39h-.36c-12.28,0-22.28-2.31-22.39-5.23l-12.24-102.84,69.21-.26Z"/>
    <path class="st0" d="M213.46,138.3l-6.13.02-69.21.26-6.13.02,3.68-10.98,33.95-.13-.1-28.43c0-.72,1.36-1.28,3.05-1.28.64,0,1.24.07,1.73.21.15.05.3.09.43.15.55.22.89.55.89.91l.1,28.42,33.96-.12,3.77,10.94Z"/>
    <path class="st0" d="M354.95,175.88c-49.79-9.91-84.46,12.31-91.3,46.88-1.28,6.47-1.79,12.83-1.36,19.02.03.49.07.98.13,1.45,8.51-5.04,21.49.31,29.55,12.39,7.86,11.8,8.25,25.82,1.2,32.45,1.21.7,2.45,1.36,3.73,2.01,9.04,4.61,20.03,8.33,33.25,10.96,15.8,3.15,29.28,3.64,40.66,2,.17-.02.35-.05.52-.08-4.73-8.71.6-22.06,12.4-30.45,11.88-8.47,25.97-8.8,32.08-.99.46-.94.89-1.9,1.3-2.88,1.9-4.54,3.34-9.38,4.36-14.46,6.84-34.58-16.72-68.4-66.51-78.3ZM330.95,232.37c.59-3.7,6.61-5.83,13.45-4.74,6.84,1.08,11.92,4.96,11.32,8.66-.58,3.7-6.61,5.83-13.45,4.74-6.84-1.08-11.9-4.96-11.32-8.66ZM295.27,229.34c-.24-2.87-.19-5.95.22-9.12,1.79-14.05,9.63-24.6,17.54-23.54,3.91.52,7.1,3.79,9.11,8.64-6.14-1.06-11.66,1.14-12.37,4.96-.71,3.87,3.77,7.93,10.01,9.08,1.64.3,3.23.37,4.69.23-.03,1.46-.14,2.96-.34,4.48-.46,3.67-1.35,7.11-2.54,10.16-.75,1.96-2.62,3.29-4.73,3.25-3.95-.06-7.77.06-11.43.35-5.16.41-9.74-3.33-10.16-8.5ZM369.84,266.06c-1.41,7.6-6.26,13.25-13.02,16.5-6.81,3.31-15.55,4.13-24.56,2.06-7.6-1.77-14.17-5.34-18.72-10.12-5.02-5.26-7.62-11.96-6.52-19.24.35-2.23,1-4.36,1.9-6.34.6-1.28,2.02-2.14,3.66-2.16,18.92-.29,37.22,3.07,54.92,10.1,1.54.62,2.58,1.93,2.66,3.34.14,1.93.03,3.89-.33,5.85ZM393.02,238.16c-.75,3.16-1.82,6.11-3.1,8.75-2.25,4.66-7.84,6.5-12.51,4.27-3.3-1.57-6.81-3.05-10.51-4.41-1.96-.72-3.23-2.61-3.25-4.7-.03-3.31.36-6.86,1.24-10.5,3.33-13.79,12.33-23.48,20.1-21.65,3.57.82,6.25,3.95,7.78,8.41-5.89-.8-11.03,1.38-11.71,5.06-.72,3.87,3.76,7.93,10.01,9.08.99.19,1.96.28,2.9.29-.2,1.77-.52,3.58-.96,5.4Z"/>
    <path d="M324.47,219.59c-.03,1.46-.14,2.96-.34,4.48-.46,3.67-1.35,7.11-2.54,10.16-.75,1.96-2.62,3.29-4.73,3.25-3.95-.06-7.77.06-11.43.35-5.16.41-9.74-3.33-10.16-8.5-.24-2.87-.19-5.95.22-9.12,1.79-14.05,9.63-24.6,17.54-23.54,3.91.52,7.1,3.79,9.11,8.64-6.14-1.06-11.66,1.14-12.37,4.96-.71,3.87,3.77,7.93,10.01,9.08,1.64.3,3.23.37,4.69.23Z"/>
    <path d="M393.98,232.76c-.2,1.77-.52,3.58-.96,5.4-.75,3.16-1.82,6.11-3.1,8.75-2.25,4.66-7.84,6.5-12.51,4.27-3.3-1.57-6.81-3.05-10.51-4.41-1.96-.72-3.23-2.61-3.25-4.7-.03-3.31.36-6.86,1.24-10.5,3.33-13.79,12.33-23.48,20.1-21.65,3.57.82,6.25,3.95,7.78,8.41-5.89-.8-11.03,1.38-11.71,5.06-.72,3.87,3.76,7.93,10.01,9.08.99.19,1.96.28,2.9.29Z"/>
    <g>
      <path class="st1" d="M415.81,271.52c-7.77,16.27-22.01,28.06-44.48,31.44-4.73-8.71.59-22.05,12.4-30.45,11.88-8.46,25.97-8.8,32.09-.98Z"/>
      <path class="st1" d="M293.16,288.07c-19.89-11.29-29.14-27.21-30.74-44.84,8.51-5.04,21.48.31,29.54,12.39,7.87,11.8,8.25,25.82,1.2,32.45Z"/>
    </g>
    <path d="M369.84,266.06c-1.41,7.6-6.26,13.25-13.02,16.5-3.17-6.88-10.52-12.49-19.81-14.19-9.26-1.71-18.06.88-23.47,6.13-5.02-5.26-7.62-11.96-6.52-19.24.35-2.23,1-4.36,1.9-6.34.6-1.28,2.02-2.14,3.66-2.16,18.92-.29,37.22,3.07,54.92,10.1,1.54.62,2.58,1.93,2.66,3.34.14,1.93.03,3.89-.33,5.85Z"/>
    <path class="st1" d="M356.82,282.56c-6.81,3.31-15.56,4.13-24.57,2.05-7.59-1.76-14.16-5.34-18.71-10.11,5.41-5.24,14.21-7.83,23.46-6.13,9.3,1.71,16.65,7.31,19.82,14.19Z"/>
    <path class="st0" d="M384.71,375.41c-2.38.37-4.79,1.03-7.21,2-5.87,2.35-11.45,6.33-16.32,11.5-4.85,5.18-8.99,11.52-11.99,18.61-5.81,13.75-6.46,28.03-2.76,39.24-5.59,2.15-11.56,3.31-17.76,3.31-31.23,0-43.31-29.51-43.31-65.91s12.08-65.92,43.31-65.92c28.69,0,52.38,24.9,56.04,57.18Z"/>
    <path d="M483,249.38c-19.2-14.84-30.8-42.75-30.9-43.05-.02-.05-.05-.07-.07-.12-.15-.49-.32-.95-.49-1.44,8.1-7.32,15.03-18.12,18.24-33.74,7.03-34.13-10.58-55.53-23.07-66.48-2.11-1.86-10.41.29-6.1,7.59,6.41,10.8,4.92,31.9-5.75,40.77-4.53,3.75-10.77,6.46-16.63,7.96-8.15-6-17.41-11.07-27.64-15.08-.1-.05-.2-.1-.27-.15-2.11-.88-20.62-9.35-24.88-31.1-.32-1.57-1.42-2.89-2.96-3.5-1.66-.66-3.6-.47-5.09.59-8.03,5.58-15.65,14.05-18,23.68-13.22-.44-25.71.98-37.17,4.16-4.92-3.48-9.79-8.25-12.66-13.37-6.83-12.1-.71-32.35,9.16-40.16,6.64-5.26-.34-10.26-2.99-9.26-15.57,5.78-39.64,19.47-45.27,53.87-2.57,15.77.05,28.33,5.02,38.05-.37.39-.69.78-1.03,1.18-.02.02-.02.05-.05.07-.22.22-21.03,22.18-44.25,29.19-1.15.34-1.86,1.47-1.66,2.64.02.2,3.09,18.39,24.78,22.28-1,10.75-.51,20.84,1.42,30.19l-28.55-19.69c-1.32-1.1-2.84-1.96-4.48-2.5l9.94-88.88h1.89c1.52-.02,2.96-.76,3.84-2.03.91-1.25,1.13-2.84.64-4.31l-3.77-10.95c-.66-1.93-2.47-3.21-4.51-3.21h-.02l-29.19.1-.1-23.65c0-2.89-2.45-6.02-7.79-6.02h-.05c-1.44.02-2.82.27-3.97.76-2.4.98-3.84,2.99-3.82,5.31l.07,23.65-29.16.12c-2.06,0-3.87,1.32-4.53,3.26l-3.67,10.97c-.49,1.47-.24,3.06.66,4.31.88,1.25,2.33,1.96,3.87,1.96h1.89l10.72,90.13c-3.6,1.54-6.15,4.82-6.68,8.77-.56,4.16,1.22,8.2,4.68,10.58l2.33,1.98c11.46,9.75,21.62,20.84,30.21,32.98,13.1,18.51,40.11,51.76,75.2,68.46-5.44,32.37-5.24,62.1.56,88.54-4.21-.47-8.06-1.08-11.58-1.81-4.77-.98-8.91-2.11-12.49-3.31,0,0,0,0,0,0,.28-.57.52-1.15.7-1.73,1.12-3.64.07-7.39-5.13-10.69-6.77-4.33-18.06-6.29-21.01-1.7-2.93,4.61,3.62,14.01,10.39,18.34,5.74,3.66,9.8,2.5,12.71-.73,0,0,.01,0,.02.01,3.16,1.81,6.39,3.4,9.62,4.77,6.83,2.91,13.57,4.92,19.17,6.27l1.32,4.65c9.35,30.12,23.75,45.62,27.79,49.53-.78,3.92-2.11,14.96,5.02,21.55,3.43,3.16,8.23,4.73,14.4,4.73s13.22-1.49,21.72-4.48c36.95-13.1,31.76-38.03,31.68-38.3l-2.15-8.91-4.6-16.99c1.64-.86,4.28-2.3,7.59-4.33,1.89,1.59,3.99,2.91,6.27,3.92,3.33,1.44,6.83,2.15,10.48,2.15,3.84,0,7.79-.78,11.75-2.38,11.75-4.68,22.33-15.94,28.31-30.12,5.9-13.93,6.49-28.43,2.62-39.72,9.3,2.6,20.52,4.06,30.41,4.06,5.44,0,10.5-.44,14.59-1.4,9.43-2.18,15.94-9.82,16.6-19.44.66-9.84-4.87-18.49-14.1-22.01-26.91-10.23-47.31-30.14-53.38-36.48,20.96-10.85,35.63-29.87,42.87-55.85,21.67,4.11,31.02-11.8,31.12-11.97.59-1.03.32-2.33-.61-3.06ZM138.12,138.58l-6.12.02,3.67-10.97,33.94-.15-.1-28.43c0-.71,1.37-1.27,3.06-1.27h.02c1.67,0,3.01.54,3.04,1.27l.1,28.43,33.96-.12,3.77,10.95-6.12.02-10.36,92.53-.51,4.75-.64,5.66c-.1,2.94-10.26,5.34-22.72,5.39h-.34c-12.29,0-22.28-2.33-22.4-5.24l-.56-4.65-.56-4.77-11.12-93.41ZM408.49,433.41c-5.48,13-15.11,23.29-25.69,27.52-6.54,2.62-12.98,2.72-18.56.27-1.37-.59-2.67-1.35-3.89-2.23-1.35-.95-2.6-2.11-3.72-3.35-5.07-5.71-7.79-14.2-7.79-23.75,0-7.15,1.54-14.91,4.75-22.5,5.51-13,15.08-23.31,25.69-27.52,3.4-1.35,6.76-2.03,9.97-2.03,3.01,0,5.9.59,8.59,1.76,3.43,1.49,6.34,3.84,8.67,6.86,1.2,1.57,2.28,3.31,3.16,5.22,4.95,10.46,4.9,25.39-1.18,39.76ZM476.61,253.61c-.25.22-.49.47-.73.69-.54.49-1.13.95-1.76,1.44-.32.22-.66.47-1,.69-.37.24-.73.47-1.1.69-.39.24-.81.44-1.22.66-.42.22-.83.42-1.3.61-.44.2-.91.37-1.4.54-.49.17-1,.34-1.49.47-3.53,1-7.86,1.32-13.05.37-.71-.15-1.44-.29-2.2-.47-1.25-.32-2.55.44-2.86,1.71-4.28,16.55-11.66,30.24-21.77,40.7-8.91,9.23-20,15.94-33.03,19.91-.12.05-.24.1-.37.17-.1.05-.22.1-.32.2-.1.05-.2.12-.27.22-.27.24-.47.54-.56.88-.02.05-.05.12-.07.17v.05c-.12.42-.12.86.02,1.3.29,1.03,1.25,1.69,2.28,1.69.22,0,.47-.05.69-.12,3.48-1.05,6.83-2.3,10.01-3.72,4.73,5.14,26.27,27.37,56.19,38.76,8.79,3.35,11.46,11.39,11.07,17.24-.42,5.95-4.02,13.05-12.93,15.11-10.63,2.47-31.59,1.27-46.42-3.77-3.11-5.68-7.57-10.09-13.25-12.56-6.78-2.96-14.47-2.89-22.26.2-5.85,2.35-11.43,6.34-16.31,11.51-4.85,5.17-8.99,11.51-11.97,18.61-8.06,19.05-6.19,39.13,3.38,50.64-4.75,2.86-7.86,4.36-7.96,4.43-1.05.49-1.57,1.67-1.27,2.77l5.12,18.83,2.11,8.79c.2.86,4.14,21.11-28.62,32.71-15.18,5.36-25.98,5.63-31.29.76-6.46-5.97-3.38-18.14-3.33-18.27.22-.88-.07-1.81-.76-2.42-.17-.15-17.38-15.3-27.72-49.31-.1-.34-.22-.71-.32-1.05-.59-1.89-1.13-3.87-1.66-6.02-.34-1.37-.69-2.74-.98-4.11-6.1-26.69-6.29-56.93-.56-89.98.2-1.08-.37-2.13-1.35-2.57-34.87-15.96-61.92-49.24-74.95-67.68-8.81-12.44-19.27-23.85-31.02-33.84l-2.42-2.06c-.07-.07-.15-.12-.22-.17-2.03-1.37-3.04-3.62-2.72-6.07.24-1.79,1.18-3.31,2.57-4.31l.39,3.28c.44,5.63,7.86,7.35,10.31,7.91,4.55,1.08,10.53,1.67,16.85,1.67h.37c10.04-.05,26.86-1.37,27.45-9.77l.54-4.8c.73.34,1.42.78,2.01,1.32.07.05.15.1.2.15l33.13,22.82c2.89,9.72,7.47,18.56,13.74,26.52.83,1.03,2.33,1.2,3.35.39.42-.32.69-.78.83-1.27.02-.1.05-.2.05-.29s.02-.2.02-.29c0-.27-.05-.51-.12-.78-.1-.24-.22-.49-.39-.71-2.03-2.57-3.89-5.26-5.56-8.06-.29-.47-.56-.93-.81-1.42-.47-.78-.91-1.59-1.32-2.4-.22-.44-.44-.86-.64-1.3-.2-.34-.37-.69-.51-1.05-.17-.34-.34-.69-.49-1.03-.22-.49-.44-.98-.64-1.49-.22-.49-.44-1-.64-1.49-.39-.98-.76-1.93-1.1-2.94-.15-.39-.27-.81-.42-1.22-.24-.69-.47-1.37-.69-2.08-1.57-5.17-2.62-10.6-3.16-16.31-.02-.1-.02-.17-.02-.24-.12-1.4-.22-2.82-.29-4.24-.05-.69-.07-1.37-.07-2.08-.02-.37-.02-.76-.02-1.13-.02-.56-.02-1.13-.02-1.69,0-.88.02-1.79.05-2.69,0-.2,0-.42.02-.61.05-1.84.17-3.7.32-5.58,0-.17.02-.34.05-.51.07-.98.17-1.96.29-2.91.12-1.32-.81-2.47-2.08-2.64-16.11-2.01-21.08-12.29-22.48-16.67,5.61-1.91,10.99-4.55,15.99-7.47,1.22-.73,2.45-1.49,3.65-2.25,1.18-.76,2.35-1.52,3.48-2.3,1.13-.78,2.23-1.57,3.28-2.33,2.38-1.76,4.6-3.5,6.56-5.14.44-.37.88-.73,1.3-1.08.42-.34.83-.71,1.22-1.03.98-.86,1.91-1.67,2.74-2.45.17-.15.34-.29.49-.44.32-.29.64-.59.93-.86.29-.29.59-.54.86-.81.27-.24.51-.49.76-.73.12-.12.24-.22.37-.34.22-.22.44-.44.64-.64.1-.07.2-.17.27-.27.1-.1.2-.2.27-.27.51-.51.88-.91,1.13-1.13.05-.05.12-.12.17-.17.05-.05.1-.1.15-.17.02,0,.02-.02.05-.05.51-.61,1.03-1.25,1.59-1.86.02-.05.07-.1.12-.17.54-.61,1.1-1.22,1.67-1.84.59-.64,1.18-1.27,1.79-1.86.59-.61,1.18-1.18,1.79-1.76.05-.02.07-.07.1-.1,1.25-1.18,2.52-2.33,3.82-3.4.64-.56,1.3-1.08,1.93-1.59.1-.07.15-.12.25-.2.61-.49,1.25-.95,1.89-1.42.59-.47,1.2-.91,1.84-1.35.86-.59,1.69-1.15,2.55-1.71.64-.42,1.3-.83,1.96-1.22.05-.05.1-.07.15-.1.71-.44,1.44-.88,2.18-1.3.02,0,.05-.02.07-.05.73-.42,1.47-.81,2.2-1.2.78-.42,1.57-.83,2.35-1.2.66-.34,1.35-.66,2.01-.98.2-.1.39-.2.59-.27.66-.32,1.35-.61,2.01-.88.1-.05.2-.1.29-.15.76-.32,1.52-.61,2.28-.93.02,0,.05-.02.07-.02.66-.27,1.35-.51,2.01-.76.49-.2.98-.37,1.47-.54.59-.2,1.18-.42,1.79-.61.88-.29,1.79-.59,2.72-.83.47-.17.98-.32,1.49-.47.42-.12.86-.22,1.3-.34,1.32-.37,2.64-.69,3.99-1,.98-.22,1.96-.44,2.96-.64.86-.15,1.69-.32,2.55-.47.42-.07.83-.15,1.27-.22.91-.15,1.79-.27,2.69-.39.93-.12,1.84-.24,2.77-.34.49-.07.95-.12,1.44-.17.71-.07,1.44-.15,2.15-.2.22-.02.44-.05.69-.05.73-.07,1.47-.12,2.23-.15.49-.05,1-.07,1.49-.1.47-.02.91-.05,1.37-.05.56-.02,1.15-.05,1.71-.05,1.05-.05,2.13-.05,3.21-.05.88,0,1.76,0,2.64.02l1.1.02h.15c-.2,4.26.69,8.67,3.06,13.08,3.11,5.73,7.54,9.38,13.2,10.85,1.98.54,3.99.73,6,.73,10.55,0,20.45-6.15,20.96-6.46,1.1-.69,1.44-2.18.73-3.28-.71-1.13-2.18-1.44-3.28-.76-.12.1-12.76,7.91-23.21,5.17-4.33-1.13-7.76-4.02-10.19-8.52-1.98-3.65-2.67-7.2-2.5-10.55.07-1.64.37-3.23.83-4.75,3.11-10.85,14.1-18.83,15.82-20.03.27-.17.61-.07.64-.05,2.25,11.41,8.15,19.59,13.96,25.12,6.46,6.17,12.85,9.06,14.1,9.6.42.17.86.34,1.27.54.96.34,1.89.73,2.82,1.18.42.17.83.34,1.25.54.37.15.73.32,1.1.49.59.27,1.2.56,1.79.83.51.24,1.03.49,1.54.76.56.27,1.08.54,1.64.81.54.27,1.08.56,1.62.86.54.27,1.05.56,1.59.86.37.2.73.39,1.1.64.29.15.56.32.86.49.37.2.76.42,1.15.66.2.12.39.24.59.37.54.29,1.05.64,1.57.95.78.49,1.59,1,2.35,1.49.2.12.39.27.59.39.29.2.59.39.88.61.49.32.95.64,1.42,1,.47.32.96.66,1.42,1,.47.34.93.69,1.37,1.05.47.32.93.69,1.37,1.05.91.69,1.79,1.42,2.64,2.15.88.73,1.74,1.49,2.57,2.25.42.37.83.76,1.22,1.15.37.32.69.64,1.03.98,1.18,1.13,2.3,2.28,3.4,3.45.42.47.83.91,1.22,1.37.37.39.71.76,1.05,1.15,1.71,2.03,3.35,4.11,4.9,6.27.29.42.59.81.86,1.22.37.51.69,1.03,1.03,1.54.34.49.66,1,.98,1.52.34.51.66,1.03.96,1.57.32.51.64,1.03.93,1.57.91,1.59,1.79,3.23,2.6,4.9.24.54.49,1.05.73,1.59.24.51.49,1.05.71,1.59.51,1.15.98,2.3,1.42,3.48.22.56.44,1.13.64,1.71.2.54.39,1.1.59,1.67.02.05.05.1.05.15.05.17.12.32.22.44,1.25,3.01,9.72,22.33,24,37.22,2.03,2.11,4.21,4.16,6.46,6.02-.44.56-1,1.2-1.69,1.89Z"/>
    <ellipse cx="343.34" cy="234.33" rx="6.79" ry="12.54" transform="translate(58.18 536.79) rotate(-81)"/>
    <path class="st0" d="M201.39,169.85c-1.62-5.04-10.03-6.85-18.78-4.04-.01,0-.02,0-.03.01,0-.19.02-.38.02-.57.03-9.2-4.24-16.66-9.53-16.68-5.29-.02-9.61,7.42-9.64,16.62,0,.01,0,.02,0,.04-.18-.06-.36-.13-.54-.19-8.74-2.87-17.16-1.12-18.81,3.91-1.65,5.03,4.09,11.44,12.82,14.31.01,0,.02,0,.03.01-.12.15-.24.3-.35.45-5.43,7.42-6.37,15.97-2.1,19.1,4.27,3.13,12.14-.35,17.57-7.77,0,0,.01-.02.02-.03.11.16.21.32.32.47,5.38,7.46,13.22,10.99,17.52,7.9,4.29-3.1,3.41-11.65-1.96-19.11,0,0-.01-.02-.02-.03.18-.06.37-.1.55-.16,8.76-2.81,14.54-9.18,12.92-14.22Z"/>
    <circle class="st3" cx="172.68" cy="178.6" r="6.61"/>
  </g>
</svg>